PathFileType	4	(X/Y/Z)	C:\Users\WrightLab\Desktop\Jo\P5V15.trc
DataRate	CameraRate	NumFrames	NumMarkers	Units	OrigDataRate	OrigDataStartFrame	OrigNumFrames
100.00	100.00	       9	19	mm	100.00	302	       805
Frame#	Time	Headset_Front			Headset_Back			Headset_Left			Headset_Right			Left_Shoulder			Right_Shoulder			Sternum			C7			Left Elbow			Right Elbow			Left Wrist			Right Wrist			Left ASIS			Right ASIS			S2			Left Knee			Right Knee			Left Ankle			Right Ankle			
		X1	Y1	Z1	X2	Y2	Z2	X3	Y3	Z3	X4	Y4	Z4	X5	Y5	Z5	X6	Y6	Z6	X7	Y7	Z7	X8	Y8	Z8	X9	Y9	Z9	X10	Y10	Z10	X11	Y11	Z11	X12	Y12	Z12	X13	Y13	Z13	X14	Y14	Z14	X15	Y15	Z15	X16	Y16	Z16	X17	Y17	Z17	X18	Y18	Z18	X19	Y19	Z19	

302	3.010										-448.09790	1595.11145	945.08862	-805.65747	1521.60718	857.51886	-511.14038	1454.00000	1139.24268	-609.58038	1324.03711	944.96088	-731.56317	1545.88940	1092.56995				-513.13708	1198.51025	1287.17456	-827.42944	1080.61780	639.70081	-390.78143	1006.64575	1175.76721	-856.66425	1016.51477	1167.92676	-540.57104	945.65576	1063.31567	-758.76410	939.30768	873.73627	-850.05975	506.97086	972.77563	-556.34814	552.19775	990.07397	-973.13446	141.28468	1216.34290	-636.20905	124.95308	938.44562	
303	3.020										-445.16122	1594.60742	938.80060	-801.57147	1521.14197	851.27826	-507.97458	1455.17773	1135.63464	-605.41302	1324.54651	939.84668	-728.65240	1544.90491	1086.65723				-512.23694	1197.25000	1282.15967	-822.35516	1081.14709	631.50006	-389.41818	1006.25519	1172.69714	-853.96509	1015.46857	1160.41492	-537.96643	944.91479	1056.68713	-752.32922	938.39392	865.95233	-846.44025	506.94669	968.90771	-558.44354	549.19312	985.87640	-972.75708	143.74277	1213.39404	-631.68298	123.15654	930.54443	
304	3.030				-591.16754	1773.37659	962.15137				-441.00644	1594.10596	933.80164	-797.31879	1520.74927	845.19812	-505.34048	1454.20264	1129.74597	-601.17719	1324.08508	933.58557	-725.66321	1543.89795	1080.93921	-906.39789	1250.39612	769.42407	-512.93237	1194.71814	1276.03577	-817.19196	1081.67371	623.56519	-387.68802	1005.19330	1168.37268	-850.71252	1014.26709	1152.83093	-534.28888	944.68567	1050.88574	-750.57086	937.18677	859.83759	-842.73132	506.43463	963.11554	-558.56335	546.72552	980.05359	-972.55658	145.55847	1212.14368	-627.49280	121.92866	923.99316	
305	3.040				-587.76288	1772.72437	957.47968				-437.07001	1592.93445	929.66583	-793.02985	1520.06348	839.20856	-502.09521	1452.89124	1126.96814	-596.79645	1324.05688	927.84662	-722.69415	1542.91455	1075.44788				-510.01483	1195.46362	1272.15430	-811.51965	1081.85938	615.91541	-385.77115	1004.32458	1164.41199	-847.37280	1012.78046	1145.13794	-530.97363	944.09875	1044.24146	-746.50165	936.13171	852.92975	-838.15369	505.48578	959.63330	-557.35040	544.54333	975.06915	-972.20447	147.75809	1209.51892	-625.38306	120.18150	919.57471	
306	3.050				-584.31372	1772.11023	952.91388				-434.08795	1592.98376	924.55487	-788.74670	1519.62219	833.50641	-499.15619	1451.90820	1120.65161	-592.68451	1322.91309	921.06671	-718.95685	1541.42908	1069.93323	-896.10193	1249.75366	755.03870	-509.01868	1192.71179	1267.85925	-805.43127	1082.18152	607.95319	-383.87842	1003.24255	1159.40686	-843.72144	1010.87659	1137.25366	-526.61157	943.20142	1036.83484	-744.49060	935.35559	847.07007	-833.92017	504.98114	953.49359	-553.74304	543.62781	968.59961	-971.66187	149.80139	1207.42859	-623.35974	116.90730	918.21899	
307	3.060				-581.23425	1771.47498	948.50153				-430.15457	1593.18982	921.19800	-784.41174	1519.03101	827.99475	-494.96228	1450.60913	1115.87463	-588.09174	1322.17590	915.49652	-715.20349	1540.01086	1064.60071				-507.22733	1192.64978	1262.75549	-800.04828	1082.77747	600.86176	-381.29947	1002.04559	1154.89734	-840.64612	1009.22650	1129.24243	-522.16974	942.20001	1030.17261	-734.13654	936.40765	834.54291	-828.90454	503.27087	948.91180	-551.96973	540.86841	961.81604	-971.19733	152.84918	1204.09668	-622.36670	114.55186	916.34833	
308	3.070				-577.84222	1770.53064	944.15948				-426.49017	1592.54846	917.11298	-780.20331	1518.32813	822.44611	-492.10431	1449.31030	1111.75256	-583.50342	1321.81201	911.29553	-712.38318	1538.83289	1059.55762	-886.11462	1249.29028	741.26886	-504.76563	1190.55481	1258.96265	-794.30109	1083.69263	592.81580	-378.72839	1000.97076	1149.99023	-837.31104	1007.49011	1121.07385	-518.12195	941.36584	1023.05420	-729.56445	937.43359	827.34601	-824.28333	502.28732	942.37103	-547.67596	539.47656	954.72931	-970.55664	155.47145	1202.76526	-621.60187	114.27215	914.27710	
309	3.080				-574.72717	1770.02527	939.75397				-422.77069	1591.81873	910.72382	-775.97577	1517.93652	817.06628	-489.40369	1447.31799	1104.83008	-579.05865	1321.35010	904.65076	-707.92285	1537.17908	1054.31201	-880.59735	1248.06299	733.98944	-503.42792	1188.96606	1253.19788	-788.94788	1084.18274	585.47845	-376.60135	1000.03918	1147.21484	-833.41602	1005.15302	1112.72852	-513.46594	940.34045	1015.40521	-721.34680	937.19269	820.71826	-819.74487	501.04495	936.48267	-542.27301	537.63477	947.38794	-969.68652	158.63493	1198.74036	-621.26453	114.21998	910.27338	
310	3.090				-570.52405	1769.94666	934.82117				-417.73450	1591.53394	906.52448	-771.74341	1517.62952	811.65411	-485.00259	1446.61084	1102.74902	-574.43079	1321.63269	898.66595	-704.69086	1536.18311	1049.33752	-875.95685	1248.25037	727.42712	-501.18219	1187.93030	1247.80542	-783.04865	1084.86035	577.99652	-373.94601	998.82330	1142.18811	-829.36499	1002.76544	1104.28650	-508.05350	939.85638	1006.72308	-716.65741	936.82684	814.21503	-815.15814	500.32541	929.86816	-537.98810	535.91559	940.36658	-968.59204	162.80334	1194.59570	-621.23962	114.66196	909.09686	
